inDegrees=yes
name=ik_lifting_orientations
DataType=double
version=3
OpenSimVersion=4.5-2024-01-10-34fd6af
endheader
time	pelvis_tilt	pelvis_list	pelvis_rotation	pelvis_tx	pelvis_ty	pelvis_tz	hip_flexion_r	hip_adduction_r	hip_rotation_r	knee_angle_r	knee_angle_r_beta	ankle_angle_r	subtalar_angle_r	mtp_angle_r	hip_flexion_l	hip_adduction_l	hip_rotation_l	knee_angle_l	knee_angle_l_beta	ankle_angle_l	subtalar_angle_l	mtp_angle_l	lumbar_extension	lumbar_bending	lumbar_rotation	arm_flex_r	arm_add_r	arm_rot_r	elbow_flex_r	pro_sup_r	wrist_flex_r	wrist_dev_r	arm_flex_l	arm_add_l	arm_rot_l	elbow_flex_l	pro_sup_l	wrist_flex_l	wrist_dev_l
0.65	0.223874527025374	2.001813917415784	-90.73781243665475	0	0.9399999998679526	0	44.95167547153246	-11.22799909482214	0	60.31099074664898	1.052625363668858	-5.46511311773212	0	0	44.95167547153246	-11.22799909482214	0	60.31099074664898	1.052625363668858	-5.46511311773212	0	0	-2.039021418869587	-1.541495039321413	-3.942717625186283	4.253885494553017	2.647284931431005	7.920748520855978	0.07446455438957139	2.31705983552812	0	0	0	-9.531566252871617	0	87.73531999627926	2.31705983552812	0	0
0.66	0.2423394425338081	1.985011577168854	-90.98405953327421	0	0.9399999998679526	0	44.9516888971347	-11.22680155178113	0	60.31092316740991	1.05262418418863	-5.464521501108489	0	0	44.9516888971347	-11.22680155178113	0	60.31092316740991	1.05262418418863	-5.464521501108489	0	0	-2.394921833609807	-1.679930125507465	-3.57786689164672	4.599629768966397	2.604070031741626	8.001272277969834	0.07456197104475579	2.316612191311341	0	0	0	-9.532344418080324	0	87.73575747534964	2.316612191311341	0	0
0.67	0.2482364174577805	2.022897374046641	-90.89386385589924	0	0.9399999998679526	0	44.95170296512262	-11.22554862875597	0	60.31085230050505	1.05262294732781	-5.463902800624942	0	0	44.95170296512262	-11.22554862875597	0	60.31085230050505	1.05262294732781	-5.463902800624942	0	0	-2.903486976210874	-1.83770377800314	-3.6194621124663	5.203008213834676	2.577146573803958	8.101161374397496	0.07418326897455482	2.316142962641358	0	0	0	-9.533160333408848	0	87.73621604875807	2.316142962641358	0	0
0.68	0.2557402728811509	2.047094444279583	-90.79909387098046	0	0.9399999998679526	0	44.95172062226503	-11.22397658311481	0	60.31076338221509	1.052621395410885	-5.463126715658	0	0	44.95172062226503	-11.22397658311481	0	60.31076338221509	1.052621395410885	-5.463126715658	0	0	-3.448831595424076	-2.005244410472094	-3.615860028225182	5.851543797929121	2.57998782550645	8.159660174639317	0.07534082681343063	2.315554050232927	0	0	0	-9.534184290356654	0	87.73679158812024	2.315554050232927	0	0
0.6899999999999999	0.2660712528328045	2.153187163398149	-90.66898616168604	0	0.9399999998679526	0	44.95173017623417	-11.2231285335221	0	60.31071517889221	1.05262055410419	-5.462708363734745	0	0	44.95173017623417	-11.2231285335221	0	60.31071517889221	1.05262055410419	-5.462708363734745	0	0	-3.878961660394494	-2.167807696534704	-3.641006912920965	6.43661845902932	2.48528819187837	8.079019228595698	0.07832652144059454	2.315235147920307	0	0	0	-9.53473913225562	0	87.73710324882539	2.315235147920307	0	0
0.7	0.2884488300171186	2.246070365037611	-90.91989575491378	0	0.9399999998679526	0	44.95174355587877	-11.22194098424887	0	60.31064769864347	1.052619376351669	-5.462122621223065	0	0	44.95174355587877	-11.22194098424887	0	60.31064769864347	1.052619376351669	-5.462122621223065	0	0	-4.470142734404402	-2.410552452998792	-3.308517635006607	7.220966041521852	2.514233143697614	7.939855087474759	0.07954487607386178	2.314788588723983	0	0	0	-9.535516004384524	0	87.73753966758746	2.314788588723983	0	0
0.71	0.2673454472501033	2.492666957604146	-90.62354822531252	0	0.9399999998679526	0	44.95176108280202	-11.22038592881907	0	60.31055932131888	1.052617833876371	-5.461355799899752	0	0	44.95176108280202	-11.22038592881907	0	60.31055932131888	1.052617833876371	-5.461355799899752	0	0	-4.90133921035995	-2.563787173780499	-3.437842586654209	7.96508351890558	2.484975872937877	7.699860833638963	0.08527108734157859	2.314203620671383	0	0	0	-9.53653362704944	0	87.73811135222812	2.314203620671383	0	0
0.72	0.2791907159291342	2.684424226846927	-90.49862915816459	0	0.9399999998679526	0	44.95177723823014	-11.21895279700393	0	60.31047790040378	1.052616412813323	-5.460649268043912	0	0	44.95177723823014	-11.21895279700393	0	60.31047790040378	1.052616412813323	-5.460649268043912	0	0	-5.367709165448276	-2.755081944456598	-3.403827733377376	8.632936652271656	2.424580747473878	7.462229080791962	0.09195152479438048	2.313664488994873	0	0	0	-9.537471395395634	0	87.73863824133474	2.313664488994873	0	0
0.73	0.2519455344490807	2.977605697530989	-90.25954921167067	0	0.9399999998679526	0	44.95178657523289	-11.21812780939364	0	60.31043071454118	1.05261558926466	-5.460242920590581	0	0	44.95178657523289	-11.21812780939364	0	60.31043071454118	1.05261558926466	-5.460242920590581	0	0	-5.602626495481726	-2.857012295644771	-3.470443077973208	9.136471403695085	2.361754109058687	7.275125073234799	0.1000763131578916	2.313352553268238	0	0	0	-9.538014475876768	0	87.73894309369629	2.313352553268238	0	0
0.74	0.2608348366383401	3.283435554800741	-90.11558716981332	0	0.9399999998679526	0	44.9517933508543	-11.21753085233408	0	60.31039640446502	1.052614990440864	-5.459949079278494	0	0	44.9517933508543	-11.21753085233408	0	60.31039640446502	1.052614990440864	-5.459949079278494	0	0	-5.454421493504721	-2.885245937487054	-3.490846476919601	9.247841189071274	2.229593113865453	7.250068423099615	0.1069514642781748	2.313126007091387	0	0	0	-9.538409156371021	0	87.73916449554217	2.313126007091387	0	0
0.75	0.2548400237600331	3.645662693284571	-89.97289305796698	0	0.9399999998679526	0	44.95180887587313	-11.21616638839588	0	60.31031766874977	1.052613616243394	-5.459277853199759	0	0	44.95180887587313	-11.21616638839588	0	60.31031766874977	1.052613616243394	-5.459277853199759	0	0	-4.674833362526571	-2.742989656534602	-3.690141198476781	8.804390368603983	2.065528025936636	7.634536899420505	0.1105066853780615	2.312606586275643	0	0	0	-9.539314547859455	0	87.73967212158404	2.312606586275643	0	0
0.76	0.2729322971273136	4.015419935472861	-89.99000539004612	0	0.9399999998679526	0	44.95182461519894	-11.21479729082163	0	60.31023723785946	1.052612212459538	-5.458605810264832	0	0	44.95182461519894	-11.21479729082163	0	60.31023723785946	1.052612212459538	-5.458605810264832	0	0	-3.471451267924628	-2.511691765769716	-3.768909846977022	7.92584821281376	1.774937176186499	8.167244141630835	0.1188381087890584	2.312078411312006	0	0	0	-9.540237503184628	0	87.7401883032271	2.312078411312006	0	0
0.77	0.2029924439823477	4.690904431236554	-89.51714514683309	0	0.9399999998679526	0	44.95183920402761	-11.21352892287879	0	60.31016271108902	1.052610911722013	-5.457983419687869	0	0	44.95183920402761	-11.21352892287879	0	60.31016271108902	1.052610911722013	-5.457983419687869	0	0	-1.619706914130095	-2.070838363330844	-4.311250359737291	6.649722196670601	1.356933000150868	8.751950619173622	0.122401224569654	2.311588867060884	0	0	0	-9.5410928894292	0	87.74066673134666	2.311588867060884	0	0
0.78	0.1323481320979768	5.364618860131328	-89.04199061504983	0	0.9399999998679526	0	44.95185545081532	-11.21210881843164	0	60.3100801067271	1.052609470003921	-5.457285963527014	0	0	44.95185545081532	-11.21210881843164	0	60.3100801067271	1.052609470003921	-5.457285963527014	0	0	0.4572758951811959	-1.596998070699397	-4.75987839781151	5.218120958679449	0.9325579758956867	9.260144318645107	0.1233428362872054	2.311044648480252	0	0	0	-9.542042383215421	0	87.74119859215948	2.311044648480252	0	0
